<?xml version="1.0" encoding="utf-8"?>
<!DOCTYPE svg PUBLIC "-//W3C//DTD SVG 1.0//EN" "http://www.w3.org/TR/2001/REC-SVG-20010904/DTD/svg10.dtd">
<svg version="1.0" xmlns="http://www.w3.org/2000/svg" width="723px" height="592px" viewBox="0 0 723 592" preserveAspectRatio="xMidYMid meet">
 <g fill="#1e4620">
  <path d="M35.7 565.5 c-14.8 -3.8 -22.2 -11.8 -26.9 -29.3 -2.8 -10.4 -3.1 -36.2 -0.5 -46.7 5.9 -24.1 21.7 -36.5 46.3 -36.5 4.7 0 11.2 0.8 15.6 1.9 8.8 2.3 19.8 7.5 19.8 9.5 0 3 -3.1 19 -4.1 20.7 -0.8 1.6 -2.1 1.9 -8.4 1.9 -7.3 0 -7.3 0 -8.4 -3.2 -0.5 -1.8 -1.3 -5 -1.7 -7.1 -0.8 -4.8 -2.9 -5.7 -13 -5.7 -9.5 0 -14.4 2.3 -18.4 8.6 -4.4 6.9 -5.5 13.1 -5.5 29.9 0 12.7 0.4 16.1 2.2 22.1 2.7 8.3 7.5 13.8 13.7 15.5 5.6 1.5 22.4 0.5 30.9 -1.9 7.7 -2.2 7 -2.7 10.6 6.6 2.1 5.2 2.1 5.2 -2.8 7.7 -12.6 6.3 -36.5 9.3 -49.4 6z"/>
  <path d="M328.4 565.6 c-16.7 -4.1 -24.6 -16.5 -24.6 -39.1 0 -18 4.7 -28.9 15.6 -36.3 7.5 -5 14.1 -6.5 26.7 -6 9.6 0.4 11.4 0.8 17.4 3.7 12.5 6.2 17.1 15.9 16.9 36.1 -0.1 14.3 -1.8 20.7 -7.9 29 -8.6 11.6 -26.7 16.8 -44.1 12.6z m21.7 -16.9 c5.9 -3.9 7.4 -8.4 7.4 -22.7 0 -10.7 -0.3 -13.2 -2.2 -17.2 -3 -6.6 -7.1 -9 -14.6 -8.5 -7 0.4 -10.8 3.6 -12.8 10.5 -1.7 5.8 -1.7 22.2 0 27.9 1.3 4.7 5.3 10 8.5 11.3 4.1 1.7 10.2 1.1 13.7 -1.3z"/>
  <path d="M97.5 562.3 c-0.3 -2.1 -0.8 -5 -1 -6.5 -0.4 -2.4 0.2 -3.1 4 -5.4 4.5 -2.6 4.5 -2.6 4.5 -42.4 0 -38.4 -0.1 -39.9 -1.9 -40.5 -1.1 -0.3 -3 -1.4 -4.4 -2.5 -2.2 -1.8 -2.3 -2.3 -1.6 -7.6 0.4 -3.1 1.2 -6.1 1.8 -6.7 0.6 -0.6 7.1 -1.2 14.6 -1.5 13.5 -0.5 13.5 -0.5 13.5 20.2 0 18.9 0.5 22.8 2.5 19.6 0.3 -0.5 3.8 -1.9 7.6 -3.1 13.7 -4.2 29.5 -1.4 34.8 6 4.8 6.7 5.4 10.4 5.9 33.8 0.4 22.2 0.4 22.2 4.8 24.8 4.3 2.5 4.4 2.7 3.8 6.8 -1.3 9.7 1 8.7 -19.8 8.7 -18.4 0 -18.4 0 -19.1 -5.9 -0.4 -3.3 -0.4 -6.5 0 -7.1 0.3 -0.5 2.4 -2 4.7 -3.1 4 -2 4 -2 3.6 -21.7 -0.4 -21.5 -1 -24.2 -5.9 -26.2 -4.4 -1.9 -14.8 -0.9 -19.2 1.9 -3.7 2.3 -3.7 2.3 -3.7 23.2 0 20.9 0 20.9 3.9 22.9 2.2 1.1 4.3 2.5 4.6 3 0.4 0.6 0.4 3.8 0 7.1 -0.7 5.9 -0.7 5.9 -19.1 5.9 -18.3 0 -18.3 0 -18.9 -3.7z"/>
  <path d="M194.6 562.9 c-0.3 -1.7 -0.6 -4.9 -0.6 -6.9 0 -3.5 0.4 -4 4 -5.7 3.9 -1.8 3.9 -1.8 4 -25 0 -22 -0.1 -23.2 -1.9 -23.8 -1.1 -0.3 -3 -1.4 -4.4 -2.5 -2.3 -1.8 -2.4 -2.2 -1.5 -7.7 0.5 -3.1 1.1 -5.9 1.3 -6.1 1.1 -1.1 10 -2.1 19.3 -2.2 10.2 0 10.2 0 10.2 32.8 0 32.7 0 32.7 3.2 34.3 4.5 2.2 5.2 3.8 4.4 10.2 -0.7 5.7 -0.7 5.7 -19 5.7 -18.3 0 -18.3 0 -19 -3.1z"/>
  <path d="M241.4 560.3 c-0.8 -6.5 -0.1 -8.2 4.4 -10.3 3.2 -1.5 3.2 -1.5 3.2 -24.6 0 -23 0 -23 -3.5 -24.7 -4.4 -2.1 -4.9 -3.3 -4.1 -10.1 0.5 -3.7 1.3 -5.6 2.4 -6.1 0.9 -0.4 7.2 -0.9 14 -1.2 12.2 -0.6 12.2 -0.6 12.2 4.7 0 5.3 0 5.3 2.3 3.2 4.4 -4.1 12.2 -7.2 18.1 -7.2 5.6 0 5.6 0 5.6 10.3 0 10.4 0 10.4 -7.8 10.4 -4.7 0.1 -9.3 0.8 -12 1.8 -4.2 1.7 -4.2 1.7 -4.2 20.9 0 19.3 0 19.3 5.8 20.9 8.1 2.3 12 4.9 11.6 7.9 -1.5 10.8 1 9.8 -24.4 9.8 -22.9 0 -22.9 0 -23.6 -5.7z"/>
  <path d="M206.4 472 c-1.2 -0.4 -3.1 -2.1 -4.4 -3.7 -3.2 -4 -2.5 -12.6 1.3 -15.9 5.6 -4.8 16.7 -3.9 20.9 1.7 2.2 2.9 2.7 10.4 0.9 13.8 -2.4 4.4 -12.5 6.6 -18.7 4.1z"/>
  <path d="M77.3 399.5 c19.9 -3.5 36.7 -7.8 58.2 -15 24.1 -8 38.9 -14.3 74.5 -31.5 15.7 -7.5 32.2 -15.1 36.7 -16.8 25.9 -9.9 50.1 -13.4 66.3 -9.6 14.4 3.3 35.6 15.7 54.8 31.8 10.2 8.7 10.2 8.7 18.5 0.5 18.7 -18.7 38.1 -29.6 59.2 -33 10.6 -1.7 28.4 -0.6 41 2.5 19.2 4.8 26.1 7.6 65.5 26.6 52.3 25.2 86 36.9 128.5 44.5 14 2.5 14 2.5 3.5 1.9 -31.9 -1.6 -67.6 -9.3 -102.7 -22 -7 -2.5 -25.2 -9.9 -40.3 -16.4 -43.9 -18.8 -56.6 -22.4 -79.5 -22.5 -12 0 -15.1 0.3 -21.5 2.3 -19.3 6.1 -35.6 18.1 -53.5 39.4 -7.3 8.6 -7.3 8.6 -11.6 4.1 -15.9 -16.3 -43.6 -36.6 -58.2 -42.5 -7.9 -3.2 -8.7 -3.3 -21.7 -3.3 -21.6 0 -34.4 3.7 -76.4 21.7 -40.3 17.3 -57.3 23.3 -85.1 30.1 -16.6 4.1 -35.4 7.2 -52 8.7 -18.2 1.5 -19.4 1.1 -4.2 -1.5z"/>
  <path d="M380.4 328 c15.3 -32.1 21.5 -59.3 20.3 -88.4 -1.2 -28.2 -7.1 -46.4 -27.7 -85.6 -11.2 -21.4 -12.4 -47.1 -3.3 -69.8 2.8 -7 7.9 -16.2 11.2 -20.3 2 -2.4 2 -2.4 0.1 5.1 -3.4 13 -4.5 27.4 -3.2 39.7 2.1 20.4 7.3 34.9 19.1 53.7 17.4 27.6 24.4 48.5 24.4 72.1 0 31.6 -10.4 59.2 -34.4 91 -13 17.3 -13.6 17.6 -6.5 2.5z"/>
 </g>
 <g fill="#4a8f4d">
  <path d="M522.2 565.5 c-6.9 -1.9 -10 -3.6 -14 -7.6 -4 -3.9 -7 -9.5 -8.8 -16.4 -1.6 -5.8 -1.8 -23.1 -0.4 -29.3 2.7 -11.3 9 -19.6 18.8 -24.4 6.5 -3.2 7 -3.3 19.7 -3.3 12.7 0 13.2 0.1 19.7 3.3 12 5.9 16.7 14.5 17.5 32.2 0.6 11.5 -1 20.8 -4.8 28.2 -3.2 6.3 -11 13.3 -17.6 15.8 -7.5 2.9 -22.5 3.6 -30.1 1.5z m23.8 -18 c4.1 -3.9 6 -10.9 6 -21.7 0 -11.3 -1.4 -16.8 -5.5 -21.5 -3.2 -3.7 -3.4 -3.8 -10.5 -3.8 -6.8 0 -7.3 0.2 -10 3.2 -4.1 4.6 -5.3 10 -4.8 23.3 0.4 13.3 2.1 18 7.8 21.8 5 3.4 12.8 2.7 17 -1.3z"/>
  <path d="M670.4 565.7 c-14.5 -3.8 -22.8 -13.7 -25.5 -30.6 -1.9 -12.8 1.1 -28.6 7 -36.8 6.4 -8.8 18.5 -14.3 31.5 -14.3 20 0 29.2 9.1 30.3 30.1 0.6 9.8 0.6 9.8 -2.5 12.8 -3 3.1 -3 3.1 -23.7 3.1 -20.7 0 -20.7 0 -20 3.3 2.5 12.6 6.8 15.9 20.5 15.9 6.5 -0.1 12.4 -1.2 18.1 -3.6 1.3 -0.6 2.1 0.6 3.9 5.5 2.4 6.2 2.4 6.2 -0.4 8.4 -7.5 6 -27.5 9.1 -39.2 6.2z m20.5 -49.3 c2.8 -0.6 3.1 -1 3.1 -4.6 0 -4.7 -2.4 -9.2 -5.7 -10.7 -3.4 -1.6 -9.9 -1.3 -13.4 0.5 -3.3 1.7 -6.8 8.2 -6.9 12.7 0 2.7 0 2.7 9.9 2.7 5.4 0 11.3 -0.3 13 -0.6z"/>
  <path d="M391.6 559.9 c-0.8 -6.8 0.2 -8.7 5.5 -10.9 2.9 -1.2 2.9 -1.2 2.9 -39.1 0 -36.3 -0.1 -37.8 -1.9 -38.4 -1.1 -0.3 -3.1 -1.5 -4.5 -2.6 -2.7 -2.1 -3.3 -5.4 -2 -11.8 0.7 -3.1 0.7 -3.1 17 -3.1 16.3 0 16.3 0 25.7 18.3 21.3 41.1 26.5 51.8 28.8 59.1 1.4 4.7 2.9 7.6 3.7 7.6 1 0 1.2 -0.6 0.7 -2.2 -0.5 -1.3 -1 -16.3 -1.2 -33.5 -0.5 -31.1 -0.5 -31.1 -3.3 -32.3 -5.3 -2.2 -6.3 -4.2 -5.5 -10.9 0.7 -6.1 0.7 -6.1 16.5 -6.1 15.7 0 15.7 0 16.4 6.1 0.8 6.8 -0.2 8.7 -5.5 10.9 -2.9 1.2 -2.9 1.2 -2.9 48.1 0 46.9 0 46.9 -12.3 46.9 -12.3 0 -12.3 0 -30 -34.3 -10.5 -20.5 -18.8 -37.8 -20.4 -43 -1.5 -4.7 -3.2 -8.5 -3.8 -8.3 -0.5 0.2 -0.8 1.2 -0.6 2.2 0.2 1 0.5 16.2 0.8 33.6 0.5 31.6 0.5 31.6 3.3 32.8 5.3 2.2 6.3 4.2 5.5 10.9 -0.7 6.1 -0.7 6.1 -16.5 6.1 -15.7 0 -15.7 0 -16.4 -6.1z"/>
  <path d="M603.7 564.7 c-5.7 -1.7 -8.4 -3.9 -10.8 -9.2 -1.7 -3.6 -1.9 -6.9 -1.9 -30.7 0 -26.8 0 -26.8 -3.9 -26.8 -3.8 0 -3.9 -0.1 -4.5 -4.5 -0.4 -2.5 -0.4 -5 -0.1 -5.5 0.4 -0.6 2.9 -2.2 5.6 -3.5 3.6 -1.9 4.9 -3.1 4.9 -4.8 0 -3.4 4.5 -12.2 7.1 -14.1 1.5 -1 4.4 -1.6 7.6 -1.6 5.3 0 5.3 0 5.3 10.5 0 10.5 0 10.5 11.5 10.5 11.5 0 11.5 0 11.5 6.5 0 6.5 0 6.5 -11.5 6.5 -11.5 0 -11.5 0 -11.5 23.4 0 21.4 0.2 23.6 1.9 25.7 2.1 2.6 7 3.1 14.7 1.6 4.1 -0.8 4.1 -0.8 6.3 4.9 2.5 6.7 2.7 6.4 -6.9 9.4 -8.4 2.7 -19.2 3.4 -25.3 1.7z"/>
  <path d="M354.5 335 c-1.4 -4.4 1.8 -8 5.5 -6 4.3 2.3 3 8 -2 8 -2 0 -3.1 -0.6 -3.5 -2z"/>
  <path d="M361.8 315.9 c-2.4 -1.4 -2.3 -6.1 0.2 -8.4 4.5 -4.1 11 1.8 7.6 7 -1.7 2.6 -4.8 3.2 -7.8 1.4z"/>
  <path d="M370.7 289.2 c-2.6 -2.8 -2.1 -6.9 0.9 -8.9 2.4 -1.5 2.9 -1.5 5.3 -0.2 1.6 0.9 2.7 2.5 2.9 4.3 0.7 5.5 -5.6 8.7 -9.1 4.8z"/>
  <path d="M372.5 259.5 c-2.9 -2.8 -3.2 -5.5 -0.7 -8.3 2.9 -3.5 6.7 -3.8 9.6 -0.8 1.5 1.4 2.6 3.5 2.6 4.6 0 2.7 -4.3 7 -7 7 -1.1 0 -3.2 -1.1 -4.5 -2.5z"/>
  <path d="M373.7 233.9 c-3.3 -2.5 -3.7 -7.7 -0.9 -10.2 2.5 -2.2 7.5 -2.1 9.5 0.1 5.4 6 -2.4 15 -8.6 10.1z"/>
  <path d="M367.5 209.8 c-2.8 -1.6 -3.5 -2.8 -3.5 -6.5 0 -3.4 3.7 -7.3 7 -7.3 3.4 0 7 3.9 7 7.5 0 2.4 -0.7 3.9 -2.6 5.4 -3 2.4 -5 2.6 -7.9 0.9z"/>
  <path d="M354.5 180.5 c-5.4 -5.3 -1.6 -14.5 6 -14.5 4.9 0 8.5 3.6 8.5 8.5 0 4.9 -3.6 8.5 -8.5 8.5 -2.5 0 -4.4 -0.8 -6 -2.5z"/>
  <path d="M348.5 158.8 c-5.1 -3 -6 -8.4 -2 -12.3 4.8 -4.9 12.5 -1.6 12.7 5.5 0.2 5.3 -6.2 9.4 -10.7 6.8z"/>
  <path d="M337.1 129.4 c-2.7 -3.4 -2.7 -6.4 0 -9.8 2 -2.6 5.7 -3.4 9.4 -2 2.7 1.1 4.5 6.2 3.3 9.6 -1.9 5.4 -9.2 6.7 -12.7 2.2z"/>
  <path d="M341.2 103.8 c-4.3 -2.1 -4.1 -10 0.4 -12 3.4 -1.6 7.5 0 9.2 3.4 1.1 2.3 1 3.2 -0.2 5.6 -2.2 4.2 -5 5.1 -9.4 3z"/>
  <path d="M351 79 c-4.1 -4.1 -1 -11 4.8 -11 3.3 0 4.5 0.8 6.1 3.8 3.4 6.5 -5.6 12.5 -10.9 7.2z"/>
  <path d="M359.7 57.2 c-3.4 -3.8 -0.9 -10.2 3.9 -10.2 2.5 0 3.8 1 5.3 3.7 3 5.7 -4.9 11.3 -9.2 6.5z"/>
  <path d="M365.2 36.8 c-2.8 -2.8 -0.3 -8.8 3.7 -8.8 2.2 0 5.1 3 5.1 5.3 0 3.8 -6.1 6.2 -8.8 3.5z"/>
 </g>
</svg>